<svg height="448pt" fill='white' viewBox="0 0 448 448.0395" width="448pt" xmlns="http://www.w3.org/2000/svg"><path d="m416.019531 64.039062h-118.96875c-17.296875 25.753907-45.765625 54.976563-65.03125 62.167969v289.832031h184zm-144 64h32c4.417969 0 8 3.582032 8 8 0 4.417969-3.582031 8-8 8h-32c-4.417969 0-8-3.582031-8-8 0-4.417968 3.582031-8 8-8zm64 240h-64c-4.417969 0-8-3.582031-8-8 0-4.417968 3.582031-8 8-8h64c4.417969 0 8 3.582032 8 8 0 4.417969-3.582031 8-8 8zm40-32h-104c-4.417969 0-8-3.582031-8-8 0-4.417968 3.582031-8 8-8h104c4.417969 0 8 3.582032 8 8 0 4.417969-3.582031 8-8 8zm0-32h-104c-4.417969 0-8-3.582031-8-8 0-4.417968 3.582031-8 8-8h104c4.417969 0 8 3.582032 8 8 0 4.417969-3.582031 8-8 8zm0-32h-104c-4.417969 0-8-3.582031-8-8 0-4.417968 3.582031-8 8-8h104c4.417969 0 8 3.582032 8 8 0 4.417969-3.582031 8-8 8zm0-32h-104c-4.417969 0-8-3.582031-8-8 0-4.417968 3.582031-8 8-8h104c4.417969 0 8 3.582032 8 8 0 4.417969-3.582031 8-8 8zm0-32h-104c-4.417969 0-8-3.582031-8-8 0-4.417968 3.582031-8 8-8h104c4.417969 0 8 3.582032 8 8 0 4.417969-3.582031 8-8 8zm0-32h-104c-4.417969 0-8-3.582031-8-8 0-4.417968 3.582031-8 8-8h104c4.417969 0 8 3.582032 8 8 0 4.417969-3.582031 8-8 8zm0 0"/><path d="m296.019531 30.441406c-.851562-17.054687-14.925781-30.441406-32-30.441406s-31.148437 13.386719-32 30.441406c0 4.417969-3.582031 8-8 8s-8-3.582031-8-8c-.851562-17.054687-14.925781-30.441406-32-30.441406s-31.148437 13.386719-32 30.441406c0 18.300782 55.847657 81.597656 72 81.597656 16.152344 0 72-63.296874 72-81.597656zm0 0"/><path d="m150.988281 64.039062h-118.96875v352h184v-289.832031c-19.265625-7.191406-47.734375-36.414062-65.03125-62.167969zm-78.96875 64h32c4.417969 0 8 3.582032 8 8 0 4.417969-3.582031 8-8 8h-32c-4.417969 0-8-3.582031-8-8 0-4.417968 3.582031-8 8-8zm64 240h-64c-4.417969 0-8-3.582031-8-8 0-4.417968 3.582031-8 8-8h64c4.417969 0 8 3.582032 8 8 0 4.417969-3.582031 8-8 8zm40-32h-104c-4.417969 0-8-3.582031-8-8 0-4.417968 3.582031-8 8-8h104c4.417969 0 8 3.582032 8 8 0 4.417969-3.582031 8-8 8zm0-32h-104c-4.417969 0-8-3.582031-8-8 0-4.417968 3.582031-8 8-8h104c4.417969 0 8 3.582032 8 8 0 4.417969-3.582031 8-8 8zm0-32h-104c-4.417969 0-8-3.582031-8-8 0-4.417968 3.582031-8 8-8h104c4.417969 0 8 3.582032 8 8 0 4.417969-3.582031 8-8 8zm0-32h-104c-4.417969 0-8-3.582031-8-8 0-4.417968 3.582031-8 8-8h104c4.417969 0 8 3.582032 8 8 0 4.417969-3.582031 8-8 8zm0-32h-104c-4.417969 0-8-3.582031-8-8 0-4.417968 3.582031-8 8-8h104c4.417969 0 8 3.582032 8 8 0 4.417969-3.582031 8-8 8zm0-32h-104c-4.417969 0-8-3.582031-8-8 0-4.417968 3.582031-8 8-8h104c4.417969 0 8 3.582032 8 8 0 4.417969-3.582031 8-8 8zm0 0"/><path d="m448.019531 96.039062h-16v328c0 4.417969-3.582031 8-8 8h-400c-4.417969 0-8-3.582031-8-8v-328h-15.9999998v352h447.9999998zm0 0"/></svg>